<svg width="85" height="85" viewBox="0 0 85 85" fill="none" xmlns="http://www.w3.org/2000/svg">
<g clip-path="url(#clip0_15_421)">
<g clip-path="url(#clip1_15_421)">
<g clip-path="url(#clip2_15_421)">
<path d="M42.5006 84.4302H42.1955C22.5637 84.3788 9.40979 80.3148 6.676 77.8084C3.79561 75.2467 0 61.9991 0 42.4302C0 22.8613 3.79561 9.61373 6.67996 7.05198C9.40979 4.54558 22.6152 0.481569 42.1955 0.430176H42.5006C62.1323 0.481569 75.2862 4.54558 78.02 7.05198C80.9044 9.60977 84.7 22.9087 84.7 42.4262C84.7 61.9438 80.9044 75.2427 78.02 77.8005C75.2862 80.3583 62.1323 84.4223 42.5006 84.4223V84.4302Z" fill="#FCE8E8"/>
<mask id="mask0_15_421" style="mask-type:alpha" maskUnits="userSpaceOnUse" x="22" y="22" width="40" height="41">
<path d="M62 22.4302H22V62.4302H62V22.4302Z" fill="#D9D9D9"/>
</mask>
<g mask="url(#mask0_15_421)">
<path d="M46.5834 35.6212C46.5834 34.3272 46.1622 33.2959 45.3198 32.5274C44.4773 31.7589 43.3615 31.3746 41.9723 31.3746C41.1147 31.3746 40.3385 31.5624 39.6436 31.938C38.9488 32.3135 38.35 32.8619 37.8473 33.583C37.4954 34.0922 37.0209 34.4001 36.4237 34.5066C35.8265 34.613 35.2778 34.4996 34.7778 34.1663C34.2964 33.8422 34.0117 33.4441 33.9237 32.9719C33.8357 32.4996 33.9538 32.0089 34.2778 31.4997C35.1297 30.2034 36.2257 29.201 37.5659 28.4927C38.9061 27.7844 40.3749 27.4302 41.9723 27.4302C44.6112 27.4302 46.7385 28.1685 48.3542 29.6451C49.9699 31.1217 50.7778 33.0547 50.7778 35.4441C50.7778 36.7126 50.5047 37.8746 49.9584 38.9302C49.4121 39.9858 48.4769 41.157 47.1528 42.4441C46.1251 43.4163 45.4306 44.1845 45.0695 44.7488C44.7084 45.313 44.4723 45.9568 44.3612 46.6802C44.2686 47.2913 44.007 47.8006 43.5764 48.208C43.1459 48.6154 42.6408 48.8191 42.0612 48.8191C41.4816 48.8191 40.984 48.6223 40.5682 48.2288C40.1524 47.8353 39.9445 47.3654 39.9445 46.8191C39.9445 45.8284 40.1899 44.8862 40.6806 43.9927C41.1713 43.0992 41.9479 42.1689 43.0101 41.2018C44.3645 39.993 45.2987 38.9788 45.8126 38.1594C46.3264 37.3399 46.5834 36.4939 46.5834 35.6212Z" fill="#E44444"/>
<path d="M39.8126 58.1977C40.4098 58.7965 41.1289 59.096 41.9698 59.096C42.8108 59.096 43.5308 58.7974 44.1296 58.2001C44.7285 57.6029 45.0279 56.8838 45.0279 56.0429C45.0279 55.2019 44.7292 54.482 44.132 53.8832C43.5348 53.2843 42.8158 52.9849 41.9748 52.9849C41.1339 52.9849 40.4139 53.2835 39.815 53.8807C39.2162 54.4779 38.9167 55.197 38.9167 56.038C38.9167 56.8789 39.2154 57.5988 39.8126 58.1977Z" fill="#E44444"/>
</g>
</g>
</g>
</g>
<defs>
<clipPath id="clip0_15_421">
<rect width="85" height="84" fill="white" transform="translate(0 0.430176)"/>
</clipPath>
<clipPath id="clip1_15_421">
<rect width="85" height="84" fill="white" transform="translate(0 0.430176)"/>
</clipPath>
<clipPath id="clip2_15_421">
<rect width="85" height="84" fill="white" transform="translate(0 0.430176)"/>
</clipPath>
</defs>
</svg>
