<svg width="85" height="85" viewBox="0 0 85 85" fill="none" xmlns="http://www.w3.org/2000/svg">
<g clip-path="url(#clip0_15_409)">
<g clip-path="url(#clip1_15_409)">
<path d="M42.5002 84.4302H42.1951C22.5633 84.3788 9.40942 80.3148 6.67563 77.8084C3.79525 75.2467 -0.000366211 61.9991 -0.000366211 42.4302C-0.000366211 22.8613 3.79525 9.61373 6.67959 7.05198C9.40942 4.54558 22.6148 0.481569 42.1951 0.430176H42.5002C62.132 0.481569 75.2859 4.54558 78.0197 7.05198C80.904 9.60977 84.6996 22.9087 84.6996 42.4262C84.6996 61.9438 80.904 75.2427 78.0197 77.8005C75.2859 80.3583 62.132 84.4223 42.5002 84.4223V84.4302Z" fill="#FCE8E8"/>
<mask id="mask0_15_409" style="mask-type:alpha" maskUnits="userSpaceOnUse" x="21" y="22" width="41" height="41">
<path d="M61.9797 22.5005H21.9797V62.5005H61.9797V22.5005Z" fill="#D9D9D9"/>
</mask>
<g mask="url(#mask0_15_409)">
<path d="M26.7019 57.5005C26.3084 57.5005 25.9786 57.3674 25.7123 57.1012C25.4461 56.835 25.313 56.5051 25.313 56.1116V38.8894C25.313 38.4959 25.4461 38.166 25.7123 37.8998C25.9786 37.6336 26.3084 37.5005 26.7019 37.5005H32.8131C33.2066 37.5005 33.5364 37.6336 33.8026 37.8998C34.0688 38.166 34.2019 38.4959 34.2019 38.8894V56.1116C34.2019 56.5051 34.0688 56.835 33.8026 57.1012C33.5364 57.3674 33.2066 57.5005 32.8131 57.5005H26.7019ZM38.9242 57.5005C38.5306 57.5005 38.2008 57.3674 37.9346 57.1012C37.6684 56.835 37.5353 56.5051 37.5353 56.1116V28.8894C37.5353 28.4959 37.6684 28.166 37.9346 27.8998C38.2008 27.6336 38.5306 27.5005 38.9242 27.5005H45.0353C45.4288 27.5005 45.7586 27.6336 46.0248 27.8998C46.2911 28.166 46.4242 28.4959 46.4242 28.8894V56.1116C46.4242 56.5051 46.2911 56.835 46.0248 57.1012C45.7586 57.3674 45.4288 57.5005 45.0353 57.5005H38.9242Z" fill="#E44444"/>
<path d="M50.1567 57.0999C50.4229 57.3661 50.7528 57.4992 51.1463 57.4992H57.2574C57.6509 57.4992 57.9808 57.3661 58.247 57.0999C58.5132 56.8337 58.6463 56.5038 58.6463 56.1103V42.2214C58.6463 41.8279 58.5132 41.4981 58.247 41.2318C57.9808 40.9656 57.6509 40.8325 57.2574 40.8325H51.1463C50.7528 40.8325 50.4229 40.9656 50.1567 41.2318C49.8905 41.4981 49.7574 41.8279 49.7574 42.2214V56.1103C49.7574 56.5038 49.8905 56.8337 50.1567 57.0999Z" fill="#E44444"/>
</g>
</g>
</g>
<defs>
<clipPath id="clip0_15_409">
<rect width="85" height="84" fill="white" transform="translate(0 0.430176)"/>
</clipPath>
<clipPath id="clip1_15_409">
<rect width="85" height="84" fill="white" transform="translate(0 0.430176)"/>
</clipPath>
</defs>
</svg>
