<svg width="74" height="428" viewBox="0 0 74 428" fill="none" xmlns="http://www.w3.org/2000/svg">
<rect x="39" y="72.4297" width="104" height="0.999995" transform="rotate(90 39 72.4297)" fill="#E44444"/>
<rect x="39" y="250.43" width="104" height="0.999995" transform="rotate(90 39 250.43)" fill="#E44444"/>
<rect y="0.929688" width="74" height="74" rx="37" fill="#FCE8E8"/>
<path d="M39.5107 28.2652V45.7197H36.3487V31.3419H36.2465L32.1641 33.9498V31.0521L36.5022 28.2652H39.5107Z" fill="#E44444"/>
<rect y="176.93" width="74" height="74" rx="37" fill="#FCE8E8"/>
<path d="M32.4112 221.72V219.436L38.4709 213.495C39.0504 212.91 39.5334 212.39 39.9198 211.936C40.3061 211.481 40.5959 211.041 40.7891 210.615C40.9823 210.188 41.0789 209.734 41.0789 209.251C41.0789 208.7 40.9539 208.228 40.7039 207.836C40.4539 207.438 40.1101 207.132 39.6726 206.916C39.2351 206.7 38.7379 206.592 38.1811 206.592C37.6073 206.592 37.1044 206.711 36.6726 206.95C36.2408 207.183 35.9056 207.515 35.6669 207.947C35.434 208.379 35.3175 208.893 35.3175 209.49H32.309C32.309 208.382 32.5618 207.419 33.0675 206.6C33.5732 205.782 34.2692 205.149 35.1556 204.7C36.0476 204.251 37.0703 204.027 38.2237 204.027C39.3942 204.027 40.4226 204.245 41.309 204.683C42.1953 205.12 42.8828 205.72 43.3715 206.481C43.8658 207.242 44.1129 208.112 44.1129 209.089C44.1129 209.742 43.9879 210.384 43.7379 211.015C43.4879 211.646 43.0476 212.345 42.4169 213.112C41.7919 213.879 40.9141 214.808 39.7834 215.899L36.7749 218.958V219.078H44.3772V221.72H32.4112Z" fill="#E44444"/>
<rect y="353.93" width="74" height="74" rx="37" fill="#FCE8E8"/>
<path d="M38.6754 398.958C37.4482 398.958 36.3573 398.748 35.4027 398.328C34.4539 397.907 33.7039 397.322 33.1527 396.572C32.6016 395.822 32.309 394.956 32.2749 393.973H35.4794C35.5078 394.444 35.6641 394.856 35.9482 395.208C36.2323 395.555 36.6101 395.825 37.0817 396.018C37.5533 396.211 38.0817 396.308 38.6669 396.308C39.2919 396.308 39.8459 396.2 40.3289 395.984C40.8118 395.762 41.1897 395.456 41.4624 395.063C41.7351 394.671 41.8686 394.22 41.8629 393.708C41.8686 393.18 41.7323 392.714 41.4539 392.311C41.1754 391.907 40.772 391.592 40.2436 391.365C39.7209 391.137 39.0902 391.024 38.3516 391.024H36.809V388.586H38.3516C38.9595 388.586 39.4908 388.481 39.9453 388.271C40.4056 388.061 40.7664 387.765 41.0277 387.384C41.2891 386.998 41.4169 386.552 41.4112 386.046C41.4169 385.552 41.3061 385.123 41.0789 384.759C40.8573 384.39 40.5419 384.103 40.1328 383.899C39.7294 383.694 39.255 383.592 38.7095 383.592C38.1754 383.592 37.6811 383.688 37.2266 383.882C36.772 384.075 36.4056 384.35 36.1272 384.708C35.8487 385.061 35.701 385.481 35.684 385.97H32.6414C32.6641 384.992 32.9453 384.134 33.4851 383.396C34.0306 382.652 34.7578 382.072 35.6669 381.657C36.576 381.237 37.5959 381.027 38.7266 381.027C39.8914 381.027 40.9027 381.245 41.7607 381.683C42.6243 382.115 43.2919 382.697 43.7635 383.43C44.2351 384.163 44.4709 384.973 44.4709 385.859C44.4766 386.842 44.1868 387.666 43.6016 388.331C43.022 388.995 42.2607 389.43 41.3175 389.634V389.771C42.5448 389.941 43.4851 390.396 44.1385 391.134C44.7976 391.867 45.1243 392.779 45.1186 393.87C45.1186 394.848 44.8402 395.723 44.2834 396.495C43.7323 397.262 42.9709 397.865 41.9993 398.302C41.0334 398.74 39.9254 398.958 38.6754 398.958Z" fill="#E44444"/>
</svg>
