<svg width="26" height="26" viewBox="0 0 26 26" fill="none" xmlns="http://www.w3.org/2000/svg">
<mask id="mask0_1_636" style="mask-type:luminance" maskUnits="userSpaceOnUse" x="1" y="0" width="25" height="25">
<path d="M25.05 0.540039H1.05005V24.54H25.05V0.540039Z" fill="#D9D9D9"/>
</mask>
<g mask="url(#mask0_1_636)">
<path d="M16.4479 13.8652H5.89458C5.52646 13.8652 5.2136 13.7364 4.95598 13.4788C4.69838 13.2212 4.56958 12.9083 4.56958 12.5402C4.56958 12.1721 4.69838 11.8592 4.95598 11.6016C5.2136 11.344 5.52646 11.2152 5.89458 11.2152H16.4479L12.0989 6.86634C11.833 6.60039 11.7019 6.28699 11.7055 5.92612C11.7091 5.56524 11.8439 5.25183 12.1099 4.98589C12.3758 4.73661 12.6892 4.61015 13.0501 4.60652C13.4109 4.6029 13.7243 4.73407 13.9902 5.00002L20.5903 11.6C20.7185 11.7282 20.8153 11.8743 20.8805 12.038C20.9457 12.2018 20.9784 12.3692 20.9784 12.5402C20.9784 12.7112 20.9457 12.8786 20.8805 13.0424C20.8153 13.2061 20.7185 13.3522 20.5903 13.4804L13.9762 20.0946C13.7175 20.3533 13.4082 20.4826 13.0485 20.4826C12.6887 20.4826 12.3758 20.3533 12.1099 20.0946C11.8439 19.8286 11.7109 19.5134 11.7109 19.1489C11.7109 18.7844 11.8439 18.4692 12.1099 18.2032L16.4479 13.8652Z" fill="#020203"/>
</g>
</svg>
