<svg width="85" height="85" viewBox="0 0 85 85" fill="none" xmlns="http://www.w3.org/2000/svg">
<g clip-path="url(#clip0_15_395)">
<g clip-path="url(#clip1_15_395)">
<g clip-path="url(#clip2_15_395)">
<path d="M42.5006 84.4302H42.1955C22.5637 84.3788 9.40979 80.3148 6.676 77.8084C3.79561 75.2467 0 61.9991 0 42.4302C0 22.8613 3.79561 9.61373 6.67996 7.05198C9.40979 4.54558 22.6152 0.481569 42.1955 0.430176H42.5006C62.1323 0.481569 75.2862 4.54558 78.02 7.05198C80.9044 9.60977 84.7 22.9087 84.7 42.4262C84.7 61.9438 80.9044 75.2427 78.02 77.8005C75.2862 80.3583 62.1323 84.4223 42.5006 84.4223V84.4302Z" fill="#FCE8E8"/>
<mask id="mask0_15_395" style="mask-type:alpha" maskUnits="userSpaceOnUse" x="22" y="22" width="40" height="41">
<path d="M62 22.4302H22V62.4302H62V22.4302Z" fill="#D9D9D9"/>
</mask>
<g mask="url(#mask0_15_395)">
<path d="M28.6666 57.4302C27.75 57.4302 26.9653 57.1038 26.3125 56.451C25.6597 55.7983 25.3333 55.0135 25.3333 54.0969V30.7635C25.3333 29.8469 25.6597 29.0621 26.3125 28.4094C26.9653 27.7566 27.75 27.4302 28.6666 27.4302H38.6666C39.5833 27.4302 40.368 27.7566 41.0208 28.4094C41.6736 29.0621 42 29.8469 42 30.7635V34.0969H55.3333C56.25 34.0969 57.0347 34.4233 57.6875 35.076C58.3403 35.7288 58.6666 36.5135 58.6666 37.4302V45.7635C58.6666 46.2358 58.5069 46.6316 58.1875 46.951C57.868 47.2705 57.4722 47.4302 57 47.4302C56.5278 47.4302 56.1319 47.2705 55.8125 46.951C55.493 46.6316 55.3333 46.2358 55.3333 45.7635V37.4302H42V40.7635H45.3333V44.0969H42V47.4302H45.3333V50.7635H42V54.0969H47C47.4722 54.0969 47.868 54.2566 48.1875 54.576C48.5069 54.8955 48.6666 55.2913 48.6666 55.7635C48.6666 56.2358 48.5069 56.6316 48.1875 56.951C47.868 57.2705 47.4722 57.4302 47 57.4302H28.6666ZM28.6666 54.0969H32V50.7635H28.6666V54.0969ZM28.6666 47.4302H32V44.0969H28.6666V47.4302ZM28.6666 40.7635H32V37.4302H28.6666V40.7635ZM28.6666 34.0969H32V30.7635H28.6666V34.0969ZM35.3333 54.0969H38.6666V50.7635H35.3333V54.0969ZM35.3333 47.4302H38.6666V44.0969H35.3333V47.4302ZM35.3333 40.7635H38.6666V37.4302H35.3333V40.7635ZM35.3333 34.0969H38.6666V30.7635H35.3333V34.0969ZM48.6666 44.0969V40.7635H52V44.0969H48.6666ZM48.6666 50.7635V47.4302H52V50.7635H48.6666Z" fill="#E44444"/>
<path d="M55.8125 60.2831C56.1319 60.6025 56.5277 60.7622 57 60.7622C57.4722 60.7622 57.868 60.6025 58.1875 60.2831C58.5069 59.9636 58.6666 59.5678 58.6666 59.0956V57.4289H60.3333C60.8055 57.4289 61.2014 57.2692 61.5208 56.9497C61.8402 56.6303 62 56.2345 62 55.7622C62 55.29 61.8402 54.8942 61.5208 54.5747C61.2014 54.2553 60.8055 54.0956 60.3333 54.0956H58.6666V52.4289C58.6666 51.9567 58.5069 51.5608 58.1875 51.2414C57.868 50.922 57.4722 50.7622 57 50.7622C56.5277 50.7622 56.1319 50.922 55.8125 51.2414C55.493 51.5608 55.3333 51.9567 55.3333 52.4289V54.0956H53.6666C53.1944 54.0956 52.7986 54.2553 52.4791 54.5747C52.1597 54.8942 52 55.29 52 55.7622C52 56.2345 52.1597 56.6303 52.4791 56.9497C52.7986 57.2692 53.1944 57.4289 53.6666 57.4289H55.3333V59.0956C55.3333 59.5678 55.493 59.9636 55.8125 60.2831Z" fill="#B05252"/>
</g>
</g>
</g>
</g>
<defs>
<clipPath id="clip0_15_395">
<rect width="85" height="84" fill="white" transform="translate(0 0.430176)"/>
</clipPath>
<clipPath id="clip1_15_395">
<rect width="85" height="84" fill="white" transform="translate(0 0.430176)"/>
</clipPath>
<clipPath id="clip2_15_395">
<rect width="85" height="84" fill="white" transform="translate(0 0.430176)"/>
</clipPath>
</defs>
</svg>
